<svg width="459" height="72" viewBox="0 0 459 72" fill="none" xmlns="http://www.w3.org/2000/svg">
<path d="M0.800001 1.8H9.2V70H0.800001V1.8ZM26.7766 1.8H42.4766C51.1432 1.8 57.5432 3.33333 61.6766 6.4C65.8766 9.46666 67.9766 14.6333 67.9766 21.9C67.9766 25.9 67.2099 29.2333 65.6766 31.9C64.1432 34.5667 62.2099 36.7333 59.8766 38.4C57.6099 40 55.1432 41.1667 52.4766 41.9C49.8099 42.5667 47.3432 42.9 45.0766 42.9H35.1766V70H26.7766V1.8ZM35.1766 35.4H44.3766C46.6432 35.4 48.6766 35.2 50.4766 34.8C52.3432 34.3333 53.9432 33.6 55.2766 32.6C56.6099 31.5333 57.6432 30.1333 58.3766 28.4C59.1099 26.6 59.4766 24.3667 59.4766 21.7C59.4766 19.0333 59.0766 16.9 58.2766 15.3C57.5432 13.6333 56.4099 12.3667 54.8766 11.5C53.4099 10.6333 51.5432 10.0667 49.2766 9.79999C47.0099 9.46666 44.3766 9.29999 41.3766 9.29999H35.1766V35.4ZM95.0805 9.6H73.6805V1.8H124.88V9.6H103.48V70H95.0805V9.6ZM128.37 1.8H136.87L156.47 62H156.57L175.87 1.8H184.37L161.67 70H151.07L128.37 1.8ZM217.792 1.8H226.192V62H257.192V70H217.792V1.8ZM262.041 35.9C262.041 29.4333 263.041 23.9667 265.041 19.5C267.108 15.0333 269.708 11.4333 272.841 8.7C276.041 5.96666 279.575 4 283.441 2.79999C287.375 1.53333 291.208 0.899996 294.941 0.899996C298.675 0.899996 302.475 1.43333 306.341 2.5C310.275 3.5 313.808 5.33333 316.941 8C320.141 10.6 322.741 14.1667 324.741 18.7C326.808 23.2333 327.841 29 327.841 36C327.841 42.5333 326.808 48.0333 324.741 52.5C322.741 56.9667 320.141 60.6 316.941 63.4C313.808 66.2 310.275 68.2333 306.341 69.5C302.475 70.7 298.675 71.3 294.941 71.3C291.208 71.3 287.375 70.7 283.441 69.5C279.575 68.3 276.041 66.3333 272.841 63.6C269.708 60.8667 267.108 57.2333 265.041 52.7C263.041 48.1667 262.041 42.5667 262.041 35.9ZM318.341 36.4C318.341 27.4 316.241 20.5667 312.041 15.9C307.908 11.2333 302.341 8.9 295.341 8.9C291.808 8.9 288.575 9.46667 285.641 10.6C282.775 11.6667 280.275 13.3 278.141 15.5C276.075 17.7 274.441 20.4667 273.241 23.8C272.108 27.0667 271.541 30.9333 271.541 35.4C271.541 44.4 273.608 51.3 277.741 56.1C281.941 60.9 287.541 63.3 294.541 63.3C298.008 63.3 301.208 62.7667 304.141 61.7C307.075 60.5667 309.575 58.8667 311.641 56.6C313.775 54.3333 315.408 51.5333 316.541 48.2C317.741 44.8667 318.341 40.9333 318.341 36.4ZM338.018 35.9C338.018 29.4333 339.018 23.9667 341.018 19.5C343.085 15.0333 345.685 11.4333 348.818 8.7C352.018 5.96666 355.551 4 359.418 2.79999C363.351 1.53333 367.185 0.899996 370.918 0.899996C374.651 0.899996 378.451 1.43333 382.318 2.5C386.251 3.5 389.785 5.33333 392.918 8C396.118 10.6 398.718 14.1667 400.718 18.7C402.785 23.2333 403.818 29 403.818 36C403.818 42.5333 402.785 48.0333 400.718 52.5C398.718 56.9667 396.118 60.6 392.918 63.4C389.785 66.2 386.251 68.2333 382.318 69.5C378.451 70.7 374.651 71.3 370.918 71.3C367.185 71.3 363.351 70.7 359.418 69.5C355.551 68.3 352.018 66.3333 348.818 63.6C345.685 60.8667 343.085 57.2333 341.018 52.7C339.018 48.1667 338.018 42.5667 338.018 35.9ZM394.318 36.4C394.318 27.4 392.218 20.5667 388.018 15.9C383.885 11.2333 378.318 8.9 371.318 8.9C367.785 8.9 364.551 9.46667 361.618 10.6C358.751 11.6667 356.251 13.3 354.118 15.5C352.051 17.7 350.418 20.4667 349.218 23.8C348.085 27.0667 347.518 30.9333 347.518 35.4C347.518 44.4 349.585 51.3 353.718 56.1C357.918 60.9 363.518 63.3 370.518 63.3C373.985 63.3 377.185 62.7667 380.118 61.7C383.051 60.5667 385.551 58.8667 387.618 56.6C389.751 54.3333 391.385 51.5333 392.518 48.2C393.718 44.8667 394.318 40.9333 394.318 36.4ZM417.695 1.8H433.395C442.061 1.8 448.461 3.33333 452.595 6.4C456.795 9.46666 458.895 14.6333 458.895 21.9C458.895 25.9 458.128 29.2333 456.595 31.9C455.061 34.5667 453.128 36.7333 450.795 38.4C448.528 40 446.061 41.1667 443.395 41.9C440.728 42.5667 438.261 42.9 435.995 42.9H426.095V70H417.695V1.8ZM426.095 35.4H435.295C437.561 35.4 439.595 35.2 441.395 34.8C443.261 34.3333 444.861 33.6 446.195 32.6C447.528 31.5333 448.561 30.1333 449.295 28.4C450.028 26.6 450.395 24.3667 450.395 21.7C450.395 19.0333 449.995 16.9 449.195 15.3C448.461 13.6333 447.328 12.3667 445.795 11.5C444.328 10.6333 442.461 10.0667 440.195 9.79999C437.928 9.46666 435.295 9.29999 432.295 9.29999H426.095V35.4Z" fill="#ECD6C4"/>
</svg>
